<svg id="logo_CX_stadium_1" data-name="logo / CX stadium 1" xmlns="http://www.w3.org/2000/svg" width="187.597" height="145.395" viewBox="0 0 187.597 145.395">
  <path id="Trazado_20997" data-name="Trazado 20997" d="M485.038,217.04c-.7-2.15-11.39-32.294-12.354-34.8-.526-1.4-1.358-2.545-2.672-2.545a4.273,4.273,0,0,0-2.409.965c-1.971,1.448-22.693,20.623-22.956,20.842-.438.395-.088.878.438.527.263-.176,17.918-12.066,19.846-13.383a6.188,6.188,0,0,1,2.585-1.272c.92,0,1.227.878,1.577,1.755.307,1.053,7.667,24.879,8.148,26.371.964,3.2-.394,4.563-1.884,6.669-1.271,1.843-13.23,17.814-13.406,18.122-.307.483.088.79.526.439.307-.263,18.356-15.752,19.67-16.717C484.818,221.954,485.958,219.8,485.038,217.04Z" transform="translate(-297.754 -132.049)" fill="#637381"/>
  <path id="Trazado_20998" data-name="Trazado 20998" d="M361.954,189.478c.219-.175,9.375-6.713,10.076-7.152a2.416,2.416,0,0,1,1.227-.57c.526,0,.876.658,1.139,1.053.394.57,7.973,12.2,8.192,12.505a.314.314,0,1,0,.57-.263c-.175-.395-6.659-15.84-7.229-17.2-.394-.965-.745-2.15-2.059-2.15-.964,0-2.1,1.448-2.453,1.887-.92,1.053-9.813,11.233-10.032,11.452C361.122,189.434,361.472,189.785,361.954,189.478Z" transform="translate(-251.031 -129.804)" fill="#637381"/>
  <path id="Trazado_20999" data-name="Trazado 20999" d="M119.546,225.172c-1.183-1.4-2.322-1.931-1.4-5.046.482-1.623,6.79-22.114,7.229-23.387.482-1.448,1.27-1.623,2.234-1.009.964.658,11.04,7.02,11.39,7.328.438.307.745-.219.482-.483s-12.267-13.6-13.844-15.094a2.469,2.469,0,0,0-2.147-1.009c-.876.088-1.709.746-2.234,2.369-.57,1.667-10.12,29.267-11.215,32.382a5.91,5.91,0,0,0,2.541,7.415c2.629,1.755,23.219,15.62,23.613,15.884s.745-.176.482-.483C136.15,243.6,120.6,226.357,119.546,225.172Z" transform="translate(-109.603 -135.837)" fill="#637381"/>
  <path id="Trazado_21000" data-name="Trazado 21000" d="M192.393,128.185a18.8,18.8,0,0,1,.307-9.17c.789-3.291,8.937-31.153,9.244-32.075.088-.395.263-.921.745-.921s.7.483.789.79c.307.7,17.436,38.305,17.611,38.569.219.439.789.263.657-.176-.088-.263-16.341-49.012-17.129-51.249-.438-1.36-1.183-2.852-2.672-2.852-1.446,0-2.41,1.667-2.848,2.72-.876,2.194-14.632,38.788-16.3,43.351-1.577,4.256-2.453,6.143-1.4,9.258,0,0,1.358,3.115,3.373,7.81-20.809,6.187-33.47,19.35-33.47,23.475a3.163,3.163,0,0,0,1.27,2.72c0-4.081,15.246-13.822,35.7-17.99,1.008,2.413,2.147,4.958,3.286,7.5-19.933,3.335-34.828,12.242-34.828,16.454a2.079,2.079,0,0,0,1.008,1.887c0-3.335,15.859-9.521,36.756-11.54,1.139,2.545,2.19,5,3.2,7.371-22.387,1.667-35.661,7.723-35.661,10.706,0,.527.307,1.185.657,1.185,0-2.062,15.114-5.836,37.238-6.757,2.629,6.055,4.512,10.311,4.512,10.355.219.527.745.395.657-.088C205.054,179.259,192.481,128.712,192.393,128.185Z" transform="translate(-133.033 -71.1)" fill="#7358fa"/>
  <path id="Trazado_21001" data-name="Trazado 21001" d="M365.892,237.242c.789,0,2.629-4.168-6.484-7.328-9.988-3.422-62.121-22.114-87.969-22.114-1.928,0-3.855.044-5.739.219l1.27,9.3c1.665-.088,3.329-.176,4.994-.176,27.731,0,78.857,14.3,86.173,16.235C361.555,234.258,365.892,235.575,365.892,237.242Z" transform="translate(-197.315 -147.819)" fill="#7358fa"/>
  <path id="Trazado_21002" data-name="Trazado 21002" d="M274.529,247.9c-1.139,0-2.19,0-3.329.044l1.008,7.371c1.008-.044,2.1-.044,3.11-.044,33.514,0,75.571,8.819,82.449,10,3.5.57,7.185,1.667,7.185,2.457.482,0,2.453-2.852-6.309-4.958C357.986,262.643,308.569,247.9,274.529,247.9Z" transform="translate(-200.406 -170.324)" fill="#7358fa"/>
  <path id="Trazado_21003" data-name="Trazado 21003" d="M357.836,291.271c-1.051-.219-45.343-9.17-78.462-9.17-1.139,0-2.234,0-3.373.044l.745,5.309h2.848c29.834,0,71.584,4.87,77.98,5.792,3.2.439,6.133,1.36,6.133,1.711C363.794,294.912,365.283,292.718,357.836,291.271Z" transform="translate(-203.103 -189.518)" fill="#7358fa"/>
  <text id="CXSTADIUM" transform="translate(90.608 139.395)" fill="#637381" font-size="23" font-family="Gilroy-Bold, Gilroy ☞" font-weight="700"><tspan x="-62.767" y="0">CX</tspan><tspan y="0" fill="#7358fa">STADIUM</tspan></text>
</svg>
