<svg id="logo_CX_stadium_2" data-name="logo / CX stadium 2" xmlns="http://www.w3.org/2000/svg" width="228.763" height="39.668" viewBox="0 0 228.763 39.668">
  <path id="Trazado_20997" data-name="Trazado 20997" d="M459.349,193.308c-.257-.784-4.182-11.769-4.535-12.681-.193-.512-.5-.927-.981-.927a1.575,1.575,0,0,0-.885.352c-.724.528-8.331,7.516-8.428,7.6-.161.144-.032.32.161.192.1-.064,6.578-4.4,7.286-4.877a2.279,2.279,0,0,1,.949-.464c.338,0,.45.32.579.64.113.384,2.815,9.067,2.991,9.61.354,1.167-.145,1.663-.692,2.431-.466.672-4.857,6.492-4.921,6.6-.113.176.032.288.193.16.113-.1,6.739-5.741,7.221-6.092C459.268,195.1,459.686,194.315,459.349,193.308Z" transform="translate(-390.593 -162.334)" fill="#637381"/>
  <path id="Trazado_20998" data-name="Trazado 20998" d="M361.537,180.721c.08-.064,3.442-2.447,3.7-2.606a.89.89,0,0,1,.45-.208c.193,0,.322.24.418.384.145.208,2.927,4.445,3.008,4.557a.115.115,0,1,0,.209-.1c-.064-.144-2.445-5.773-2.654-6.268-.145-.352-.273-.784-.756-.784-.354,0-.772.528-.9.688-.338.384-3.6,4.094-3.683,4.174C361.231,180.705,361.36,180.833,361.537,180.721Z" transform="translate(-320.814 -158.974)" fill="#637381"/>
  <path id="Trazado_20999" data-name="Trazado 20999" d="M113.254,200.562c-.434-.512-.852-.7-.515-1.839.177-.592,2.493-8.059,2.654-8.523.177-.528.466-.592.82-.368.354.24,4.053,2.558,4.182,2.67.161.112.273-.08.177-.176s-4.5-4.957-5.082-5.5a.909.909,0,0,0-.788-.368c-.322.032-.627.272-.82.863-.209.608-3.715,10.666-4.117,11.8a2.146,2.146,0,0,0,.933,2.7c.965.64,8.524,5.693,8.669,5.789s.273-.064.177-.176C119.349,207.278,113.64,200.994,113.254,200.562Z" transform="translate(-109.603 -168.005)" fill="#637381"/>
  <path id="Trazado_21000" data-name="Trazado 21000" d="M166.386,91.9a6.8,6.8,0,0,1,.113-3.342c.29-1.2,3.281-11.353,3.394-11.689.032-.144.1-.336.273-.336s.257.176.289.288c.113.256,6.4,13.96,6.465,14.056.08.16.289.1.241-.064-.032-.1-6-17.861-6.289-18.677-.161-.5-.434-1.039-.981-1.039-.531,0-.885.608-1.045.991-.322.8-5.372,14.136-5.983,15.8-.579,1.551-.9,2.239-.515,3.374,0,0,.5,1.135,1.238,2.846-7.64,2.255-12.288,7.052-12.288,8.555a1.15,1.15,0,0,0,.466.991c0-1.487,5.6-5.037,13.108-6.556.37.879.788,1.807,1.206,2.734-7.318,1.215-12.786,4.461-12.786,6a.757.757,0,0,0,.37.688c0-1.215,5.822-3.47,13.494-4.206.418.927.8,1.823,1.174,2.686-8.219.608-13.092,2.814-13.092,3.9,0,.192.113.432.241.432,0-.752,5.549-2.127,13.671-2.463.965,2.207,1.657,3.758,1.657,3.774.08.192.273.144.241-.032C171.034,110.517,166.418,92.1,166.386,91.9Z" transform="translate(-144.594 -71.1)" fill="#7358fa"/>
  <path id="Trazado_21001" data-name="Trazado 21001" d="M302.482,218.53c.289,0,.965-1.519-2.38-2.67-3.667-1.247-22.806-8.059-32.3-8.059-.708,0-1.415.016-2.107.08l.466,3.39c.611-.032,1.222-.064,1.833-.064,10.181,0,28.95,5.213,31.636,5.917C300.89,217.442,302.482,217.922,302.482,218.53Z" transform="translate(-240.595 -185.941)" fill="#7358fa"/>
  <path id="Trazado_21002" data-name="Trazado 21002" d="M272.422,247.9c-.418,0-.8,0-1.222.016l.37,2.686c.37-.016.772-.016,1.142-.016,12.3,0,27.744,3.214,30.269,3.646,1.287.208,2.638.608,2.638.9.177,0,.9-1.039-2.316-1.807C303.061,253.273,284.919,247.9,272.422,247.9Z" transform="translate(-245.21 -219.629)" fill="#7358fa"/>
  <path id="Trazado_21003" data-name="Trazado 21003" d="M306.044,285.442c-.386-.08-16.646-3.342-28.805-3.342-.418,0-.82,0-1.238.016l.273,1.935h1.045a269.9,269.9,0,0,1,28.628,2.111,5.647,5.647,0,0,1,2.252.624C308.231,286.769,308.778,285.97,306.044,285.442Z" transform="translate(-249.238 -248.36)" fill="#7358fa"/>
  <g id="Grupo_43023" data-name="Grupo 43023" transform="translate(45.584 -171.654)">
    <path id="Trazado_21004" data-name="Trazado 21004" d="M11.128,27.986a9.126,9.126,0,0,1-6.8-2.737A9.263,9.263,0,0,1,1.64,18.5a9.251,9.251,0,0,1,2.685-6.764,9.147,9.147,0,0,1,6.8-2.724A9.3,9.3,0,0,1,15.7,10.17a8.5,8.5,0,0,1,3.272,3.141l-3.1,1.8a4.818,4.818,0,0,0-1.929-1.915,5.729,5.729,0,0,0-2.815-.691,5.723,5.723,0,0,0-4.287,1.668A5.93,5.93,0,0,0,5.211,18.5a5.894,5.894,0,0,0,1.629,4.3,5.72,5.72,0,0,0,4.287,1.668,5.8,5.8,0,0,0,2.828-.69,4.669,4.669,0,0,0,1.916-1.89l3.1,1.8a8.521,8.521,0,0,1-3.258,3.141A9.281,9.281,0,0,1,11.128,27.986Z" transform="translate(41.018 172.99)" fill="#637381"/>
    <path id="Trazado_21005" data-name="Trazado 21005" d="M41.214,27.746H37.121L33.576,21.8l-3.545,5.951H25.965l5.578-9.364L26.252,9.5h4.066l3.263,5.463L36.835,9.5H40.9l-5.285,8.871Z" transform="translate(34.809 172.865)" fill="#637381"/>
    <path id="Trazado_21006" data-name="Trazado 21006" d="M55.043,27.986a8.149,8.149,0,0,1-4.562-1.212,6.477,6.477,0,0,1-2.607-3.3l3.076-1.8a4.1,4.1,0,0,0,4.2,2.789,3.612,3.612,0,0,0,2.216-.547,1.723,1.723,0,0,0-.156-2.881,13.321,13.321,0,0,0-3.076-1.16,19.082,19.082,0,0,1-2.073-.73,8.921,8.921,0,0,1-1.694-.977,3.983,3.983,0,0,1-1.29-1.551,5.074,5.074,0,0,1-.443-2.19,4.887,4.887,0,0,1,1.759-3.949A6.388,6.388,0,0,1,54.626,9.01a7.038,7.038,0,0,1,3.9,1.082,7.266,7.266,0,0,1,2.62,3.01l-3.024,1.746A3.643,3.643,0,0,0,54.626,12.5a2.756,2.756,0,0,0-1.76.509,1.6,1.6,0,0,0-.638,1.316,1.66,1.66,0,0,0,.716,1.394,10.01,10.01,0,0,0,2.75,1.16q.834.26,1.264.4t1.173.444a7.1,7.1,0,0,1,1.148.56,9.163,9.163,0,0,1,.925.7,3.65,3.65,0,0,1,.8.912,5.235,5.235,0,0,1,.664,2.581A4.892,4.892,0,0,1,59.826,26.5,7.37,7.37,0,0,1,55.043,27.986Z" transform="translate(29.216 172.99)" fill="#7358fa"/>
    <path id="Trazado_21007" data-name="Trazado 21007" d="M80.269,9.5v3.441H75.343V27.746h-3.6V12.941h-4.9V9.5Z" transform="translate(24.374 172.865)" fill="#7358fa"/>
    <path id="Trazado_21008" data-name="Trazado 21008" d="M97.211,27.746l-1.16-3.284h-7.5l-1.095,3.284H83.577L89.962,9.5H94.42l6.437,18.246ZM89.727,21.1h5.135l-2.633-7.455Z" transform="translate(20.103 172.865)" fill="#7358fa"/>
    <path id="Trazado_21009" data-name="Trazado 21009" d="M116.406,9.5a8.318,8.318,0,0,1,6.269,2.633,9.038,9.038,0,0,1,2.515,6.49,9.038,9.038,0,0,1-2.515,6.49,8.315,8.315,0,0,1-6.269,2.633H109.16V9.5Zm0,14.806a5.058,5.058,0,0,0,3.858-1.577,5.744,5.744,0,0,0,1.486-4.106,5.745,5.745,0,0,0-1.486-4.106,5.061,5.061,0,0,0-3.858-1.577h-3.649V24.306Z" transform="translate(13.573 172.865)" fill="#7358fa"/>
    <path id="Trazado_21010" data-name="Trazado 21010" d="M134.115,9.5h3.6V27.746h-3.6Z" transform="translate(7.203 172.865)" fill="#7358fa"/>
    <path id="Trazado_21011" data-name="Trazado 21011" d="M150.244,28.111a7.3,7.3,0,0,1-5.005-1.72,5.838,5.838,0,0,1-1.955-4.614V9.5h3.571V21.49a3.092,3.092,0,0,0,.821,2.268,4.369,4.369,0,0,0,5.135,0,3.092,3.092,0,0,0,.821-2.268V9.5h3.6V21.777a5.838,5.838,0,0,1-1.955,4.614A7.335,7.335,0,0,1,150.244,28.111Z" transform="translate(4.862 172.865)" fill="#7358fa"/>
    <path id="Trazado_21012" data-name="Trazado 21012" d="M184.2,9.5V27.746h-3.571V15.912l-5.145,8.465-.419.014-5.122-8.435V27.746h-3.6V9.5h3.7l5.233,8.615L180.488,9.5Z" transform="translate(-1.025 172.865)" fill="#7358fa"/>
  </g>
</svg>
